<mxfile host="app.diagrams.net" modified="2024-02-07T11:27:21.009Z" agent="Mozilla/5.0 (Windows NT 10.0; Win64; x64; rv:122.0) Gecko/20100101 Firefox/122.0" etag="019tF3LokszkyfJ95Q4s" version="23.1.1" type="device">
  <diagram name="Seite-1" id="YHYIciFOnkH-qeka7UyO">
    <mxGraphModel dx="2250" dy="966" grid="0" gridSize="10" guides="1" tooltips="1" connect="1" arrows="1" fold="1" page="0" pageScale="1" pageWidth="827" pageHeight="1169" math="0" shadow="0">
      <root>
        <mxCell id="0" />
        <mxCell id="1" parent="0" />
        <mxCell id="ZkgS1rDbDtyIy7YNCylX-15" value="condition: {snake besetzt alle begehbaren Felder}&lt;br&gt;extension point: Spiel gewonnen" style="shape=note;whiteSpace=wrap;html=1;backgroundOutline=1;darkOpacity=0.05;" parent="1" vertex="1">
          <mxGeometry x="-447" y="-1" width="332" height="67" as="geometry" />
        </mxCell>
        <mxCell id="PrF3KnPLr2qsfcJWz9AF-2" value="" style="endArrow=none;dashed=1;html=1;rounded=0;entryX=0;entryY=0.5;entryDx=0;entryDy=0;entryPerimeter=0;exitX=1;exitY=0.5;exitDx=0;exitDy=0;" parent="1" source="PrF3KnPLr2qsfcJWz9AF-5" target="ZkgS1rDbDtyIy7YNCylX-15" edge="1">
          <mxGeometry width="50" height="50" relative="1" as="geometry">
            <mxPoint x="-352" y="-65" as="sourcePoint" />
            <mxPoint x="-418" y="27" as="targetPoint" />
            <Array as="points">
              <mxPoint x="-468" y="-55" />
              <mxPoint x="-469" y="33" />
            </Array>
          </mxGeometry>
        </mxCell>
        <mxCell id="DKGeQluDKc4gFPgwQqkB-10" style="edgeStyle=orthogonalEdgeStyle;rounded=0;orthogonalLoop=1;jettySize=auto;html=1;exitX=0.5;exitY=0.5;exitDx=0;exitDy=0;exitPerimeter=0;entryX=1;entryY=0.5;entryDx=0;entryDy=0;endArrow=none;endFill=0;" edge="1" parent="1" source="Ak6sycWPD7kU5rR-advj-2" target="DKGeQluDKc4gFPgwQqkB-4">
          <mxGeometry relative="1" as="geometry" />
        </mxCell>
        <mxCell id="DKGeQluDKc4gFPgwQqkB-20" style="edgeStyle=orthogonalEdgeStyle;rounded=0;orthogonalLoop=1;jettySize=auto;html=1;exitX=0.25;exitY=0.1;exitDx=0;exitDy=0;exitPerimeter=0;endArrow=none;endFill=0;" edge="1" parent="1" source="Ak6sycWPD7kU5rR-advj-2">
          <mxGeometry relative="1" as="geometry">
            <mxPoint x="-763" y="67" as="targetPoint" />
          </mxGeometry>
        </mxCell>
        <mxCell id="DKGeQluDKc4gFPgwQqkB-21" style="edgeStyle=orthogonalEdgeStyle;rounded=0;orthogonalLoop=1;jettySize=auto;html=1;exitX=1;exitY=1;exitDx=0;exitDy=0;exitPerimeter=0;endArrow=none;endFill=0;" edge="1" parent="1" source="Ak6sycWPD7kU5rR-advj-2" target="Ak6sycWPD7kU5rR-advj-30">
          <mxGeometry relative="1" as="geometry">
            <mxPoint x="-569" y="466" as="targetPoint" />
            <Array as="points">
              <mxPoint x="-559" y="375" />
            </Array>
          </mxGeometry>
        </mxCell>
        <mxCell id="Ak6sycWPD7kU5rR-advj-2" value="Spieler" style="shape=umlActor;verticalLabelPosition=bottom;verticalAlign=top;html=1;outlineConnect=0;" parent="1" vertex="1">
          <mxGeometry x="-740" y="315" width="30" height="60" as="geometry" />
        </mxCell>
        <mxCell id="Ak6sycWPD7kU5rR-advj-3" value="Programm starten" style="ellipse;whiteSpace=wrap;html=1;" parent="1" vertex="1">
          <mxGeometry x="-562" y="305" width="120" height="80" as="geometry" />
        </mxCell>
        <mxCell id="Ak6sycWPD7kU5rR-advj-5" value="Startmenü" style="ellipse;whiteSpace=wrap;html=1;" parent="1" vertex="1">
          <mxGeometry x="-306" y="305" width="120" height="80" as="geometry" />
        </mxCell>
        <mxCell id="Ak6sycWPD7kU5rR-advj-7" value="" style="endArrow=none;html=1;rounded=0;exitX=0.5;exitY=0.5;exitDx=0;exitDy=0;exitPerimeter=0;entryX=0;entryY=0.5;entryDx=0;entryDy=0;" parent="1" source="Ak6sycWPD7kU5rR-advj-2" target="Ak6sycWPD7kU5rR-advj-3" edge="1">
          <mxGeometry width="50" height="50" relative="1" as="geometry">
            <mxPoint x="-434" y="229" as="sourcePoint" />
            <mxPoint x="-384" y="179" as="targetPoint" />
          </mxGeometry>
        </mxCell>
        <mxCell id="Ak6sycWPD7kU5rR-advj-9" value="&amp;lt;&amp;lt;includes&amp;gt;&amp;gt;" style="html=1;verticalAlign=bottom;endArrow=open;curved=0;rounded=0;exitX=1;exitY=0.5;exitDx=0;exitDy=0;entryX=0;entryY=0.5;entryDx=0;entryDy=0;dashed=1;endFill=0;" parent="1" source="Ak6sycWPD7kU5rR-advj-3" target="Ak6sycWPD7kU5rR-advj-5" edge="1">
          <mxGeometry width="80" relative="1" as="geometry">
            <mxPoint x="-425" y="344.52" as="sourcePoint" />
            <mxPoint x="-345" y="344.52" as="targetPoint" />
          </mxGeometry>
        </mxCell>
        <mxCell id="Ak6sycWPD7kU5rR-advj-12" value="Aufruf Helpmenü" style="ellipse;whiteSpace=wrap;html=1;" parent="1" vertex="1">
          <mxGeometry x="-306" y="132" width="120" height="80" as="geometry" />
        </mxCell>
        <mxCell id="Ak6sycWPD7kU5rR-advj-14" value="Programm schließen" style="ellipse;whiteSpace=wrap;html=1;" parent="1" vertex="1">
          <mxGeometry x="-306" y="489" width="120" height="80" as="geometry" />
        </mxCell>
        <mxCell id="Ak6sycWPD7kU5rR-advj-21" value="extends" style="html=1;verticalAlign=bottom;endArrow=open;dashed=1;endSize=8;curved=0;rounded=0;exitX=0.5;exitY=1;exitDx=0;exitDy=0;entryX=0.5;entryY=0;entryDx=0;entryDy=0;" parent="1" source="Ak6sycWPD7kU5rR-advj-12" target="Ak6sycWPD7kU5rR-advj-5" edge="1">
          <mxGeometry relative="1" as="geometry">
            <mxPoint x="-180" y="249" as="sourcePoint" />
            <mxPoint x="-205" y="268" as="targetPoint" />
          </mxGeometry>
        </mxCell>
        <mxCell id="Ak6sycWPD7kU5rR-advj-30" value="Neustarten des Spiels" style="ellipse;whiteSpace=wrap;html=1;" parent="1" vertex="1">
          <mxGeometry x="-619" y="483" width="120" height="80" as="geometry" />
        </mxCell>
        <mxCell id="Ak6sycWPD7kU5rR-advj-34" value="extends" style="html=1;verticalAlign=bottom;endArrow=open;dashed=1;endSize=8;curved=0;rounded=0;entryX=0.5;entryY=1;entryDx=0;entryDy=0;exitX=0.5;exitY=0;exitDx=0;exitDy=0;" parent="1" source="Ak6sycWPD7kU5rR-advj-14" target="Ak6sycWPD7kU5rR-advj-5" edge="1">
          <mxGeometry relative="1" as="geometry">
            <mxPoint x="-246" y="477" as="sourcePoint" />
            <mxPoint x="-246.48" y="396" as="targetPoint" />
          </mxGeometry>
        </mxCell>
        <mxCell id="Ak6sycWPD7kU5rR-advj-39" value="Spiel gewonnen" style="ellipse;whiteSpace=wrap;html=1;" parent="1" vertex="1">
          <mxGeometry x="-608" y="-95" width="120" height="80" as="geometry" />
        </mxCell>
        <mxCell id="Ak6sycWPD7kU5rR-advj-40" value="extends" style="html=1;verticalAlign=bottom;endArrow=block;curved=0;rounded=0;endFill=1;entryX=0.5;entryY=1;entryDx=0;entryDy=0;" parent="1" target="Ak6sycWPD7kU5rR-advj-39" edge="1">
          <mxGeometry x="-0.1818" width="80" relative="1" as="geometry">
            <mxPoint x="-548" y="34" as="sourcePoint" />
            <mxPoint x="-743" y="71" as="targetPoint" />
            <mxPoint as="offset" />
          </mxGeometry>
        </mxCell>
        <mxCell id="Ak6sycWPD7kU5rR-advj-42" value="" style="html=1;verticalAlign=bottom;endArrow=none;curved=0;rounded=0;endFill=0;exitX=0.75;exitY=0.1;exitDx=0;exitDy=0;exitPerimeter=0;" parent="1" source="Ak6sycWPD7kU5rR-advj-2" edge="1">
          <mxGeometry width="80" relative="1" as="geometry">
            <mxPoint x="-548" y="66" as="sourcePoint" />
            <mxPoint x="-548" y="32" as="targetPoint" />
            <Array as="points">
              <mxPoint x="-637" y="321" />
              <mxPoint x="-637" y="173" />
              <mxPoint x="-547" y="174" />
            </Array>
          </mxGeometry>
        </mxCell>
        <mxCell id="PrF3KnPLr2qsfcJWz9AF-5" value="" style="ellipse;whiteSpace=wrap;html=1;aspect=fixed;" parent="1" vertex="1">
          <mxGeometry x="-492" y="-58.5" width="7" height="7" as="geometry" />
        </mxCell>
        <mxCell id="DKGeQluDKc4gFPgwQqkB-2" value="Spiel starten" style="ellipse;whiteSpace=wrap;html=1;" vertex="1" parent="1">
          <mxGeometry x="-785" y="483" width="120" height="80" as="geometry" />
        </mxCell>
        <mxCell id="DKGeQluDKc4gFPgwQqkB-3" value="" style="endArrow=none;html=1;rounded=0;entryX=0.5;entryY=0;entryDx=0;entryDy=0;exitX=0;exitY=1;exitDx=0;exitDy=0;exitPerimeter=0;" edge="1" parent="1" source="Ak6sycWPD7kU5rR-advj-2" target="DKGeQluDKc4gFPgwQqkB-2">
          <mxGeometry width="50" height="50" relative="1" as="geometry">
            <mxPoint x="-725" y="399" as="sourcePoint" />
            <mxPoint x="-552" y="355" as="targetPoint" />
            <Array as="points">
              <mxPoint x="-776" y="375" />
              <mxPoint x="-776" y="427" />
              <mxPoint x="-725" y="427" />
            </Array>
          </mxGeometry>
        </mxCell>
        <mxCell id="DKGeQluDKc4gFPgwQqkB-4" value="Schlange bewegen" style="ellipse;whiteSpace=wrap;html=1;" vertex="1" parent="1">
          <mxGeometry x="-978" y="305" width="120" height="80" as="geometry" />
        </mxCell>
        <mxCell id="DKGeQluDKc4gFPgwQqkB-5" value="Schlange töten" style="ellipse;whiteSpace=wrap;html=1;" vertex="1" parent="1">
          <mxGeometry x="-978" y="453" width="120" height="80" as="geometry" />
        </mxCell>
        <mxCell id="DKGeQluDKc4gFPgwQqkB-6" value="extends" style="html=1;verticalAlign=bottom;endArrow=open;curved=0;rounded=0;dashed=1;endFill=0;entryX=0.5;entryY=1;entryDx=0;entryDy=0;exitX=0.5;exitY=0;exitDx=0;exitDy=0;" edge="1" parent="1" source="DKGeQluDKc4gFPgwQqkB-5" target="DKGeQluDKc4gFPgwQqkB-4">
          <mxGeometry x="-0.0725" width="80" relative="1" as="geometry">
            <mxPoint x="-1100" y="489.52" as="sourcePoint" />
            <mxPoint x="-1121" y="490" as="targetPoint" />
            <mxPoint as="offset" />
          </mxGeometry>
        </mxCell>
        <mxCell id="DKGeQluDKc4gFPgwQqkB-7" value="Früchte essen" style="ellipse;whiteSpace=wrap;html=1;" vertex="1" parent="1">
          <mxGeometry x="-978" y="125" width="120" height="80" as="geometry" />
        </mxCell>
        <mxCell id="DKGeQluDKc4gFPgwQqkB-8" value="extends" style="html=1;verticalAlign=bottom;endArrow=open;curved=0;rounded=0;dashed=1;endFill=0;entryX=0.5;entryY=0;entryDx=0;entryDy=0;exitX=0.5;exitY=1;exitDx=0;exitDy=0;" edge="1" parent="1" source="DKGeQluDKc4gFPgwQqkB-7" target="DKGeQluDKc4gFPgwQqkB-4">
          <mxGeometry width="80" relative="1" as="geometry">
            <mxPoint x="-1003" y="231" as="sourcePoint" />
            <mxPoint x="-1121" y="317" as="targetPoint" />
          </mxGeometry>
        </mxCell>
        <mxCell id="DKGeQluDKc4gFPgwQqkB-12" value="condition: {snake läuft in Wand}&lt;br&gt;extension point: Schlange tod" style="shape=note;whiteSpace=wrap;html=1;backgroundOutline=1;darkOpacity=0.05;" vertex="1" parent="1">
          <mxGeometry x="-1142" y="-41" width="261" height="67" as="geometry" />
        </mxCell>
        <mxCell id="DKGeQluDKc4gFPgwQqkB-13" value="" style="endArrow=none;dashed=1;html=1;rounded=0;entryX=0;entryY=0;entryDx=261;entryDy=48.5;entryPerimeter=0;exitX=0;exitY=0.5;exitDx=0;exitDy=0;" edge="1" parent="1" source="DKGeQluDKc4gFPgwQqkB-14" target="DKGeQluDKc4gFPgwQqkB-12">
          <mxGeometry width="50" height="50" relative="1" as="geometry">
            <mxPoint x="-868" y="-63" as="sourcePoint" />
            <mxPoint x="-677.5" y="-134" as="targetPoint" />
          </mxGeometry>
        </mxCell>
        <mxCell id="DKGeQluDKc4gFPgwQqkB-15" value="Game over" style="ellipse;whiteSpace=wrap;html=1;" vertex="1" parent="1">
          <mxGeometry x="-823" y="-95" width="120" height="80" as="geometry" />
        </mxCell>
        <mxCell id="DKGeQluDKc4gFPgwQqkB-14" value="" style="ellipse;whiteSpace=wrap;html=1;aspect=fixed;" vertex="1" parent="1">
          <mxGeometry x="-825" y="-55" width="5" height="5" as="geometry" />
        </mxCell>
        <mxCell id="DKGeQluDKc4gFPgwQqkB-19" value="extends" style="html=1;verticalAlign=bottom;endArrow=block;endSize=8;curved=0;rounded=0;entryX=0.5;entryY=1;entryDx=0;entryDy=0;endFill=1;" edge="1" parent="1" target="DKGeQluDKc4gFPgwQqkB-15">
          <mxGeometry relative="1" as="geometry">
            <mxPoint x="-763" y="72" as="sourcePoint" />
            <mxPoint x="-782" y="87" as="targetPoint" />
          </mxGeometry>
        </mxCell>
      </root>
    </mxGraphModel>
  </diagram>
</mxfile>
